<?xml version="1.0" encoding="UTF-8" standalone="no"?>
<svg width="34px" height="40px" viewBox="0 0 34 40" version="1.1" xmlns="http://www.w3.org/2000/svg" xmlns:xlink="http://www.w3.org/1999/xlink" xmlns:sketch="http://www.bohemiancoding.com/sketch/ns">
    <!-- Generator: Sketch 3.4.4 (17249) - http://www.bohemiancoding.com/sketch -->
    <title>icons/logo-mobile</title>
    <desc>Created with Sketch.</desc>
    <defs></defs>
    <g id="icons" stroke="none" stroke-width="1" fill="none" fill-rule="evenodd" sketch:type="MSPage">
        <g id="icons/logo-mobile" sketch:type="MSArtboardGroup" fill="#00802F">
            <path d="M12.8012897,9.99060106 C13.0079407,10.0018785 13.0977889,10.0244334 13.3134247,9.99285655 C13.4055191,10.0740541 13.5290604,10.1281858 13.6503556,10.1597626 C13.6728176,10.189084 13.6503556,10.1823175 13.7222342,10.1620181 C13.7828817,10.2048724 13.8502679,10.2071279 13.9221465,10.2387047 C14.0119947,10.2905809 14.0209795,10.4123773 14.1085816,10.4822974 C14.1692291,10.5228962 14.1602443,10.5296626 14.2231381,10.5995828 C14.3062477,10.6153712 14.2748008,10.6920578 14.2748008,10.6920578 C14.2792932,10.7055907 14.330956,10.9491834 14.2366153,11.0326364 C14.0951043,11.2378858 14.0659037,11.3145724 13.9446085,11.5220772 C13.830052,11.6325961 13.7671583,11.8062687 13.7177417,11.9709193 C13.7357114,11.9799413 13.7357114,12.0115181 13.7357114,12.0318175 C13.6256473,12.0724163 13.654848,12.2167675 13.5627535,12.2776656 C13.5515225,12.4220169 13.502106,12.5438132 13.5110908,12.6994418 C13.4189964,12.7716175 13.4706591,12.8821364 13.3987805,12.954312 C13.3291481,13.1708388 13.3291481,13.4663077 13.4504432,13.6332138 C13.5223218,13.7753095 13.5110908,13.9286827 13.6121701,14.0730339 C13.654848,14.2061077 13.7873741,14.2782833 13.8704837,14.3820357 C13.8794686,14.4948101 14.1040892,14.688782 14.1040892,14.688782 L14.3040015,14.781257 L14.3332022,14.7496802 C14.3871111,14.790279 14.5106524,14.8331333 14.5420993,14.9165863 C14.6836103,14.9977839 14.8857688,15.0496601 14.9868481,15.1759674 C15.0677115,15.248143 15.0677115,15.3812168 15.0924198,15.4939912 C15.2339307,15.5458674 15.1979914,15.6811966 15.2900859,15.7917155 C15.3305176,15.9766655 14.8722916,16.2992003 14.7195496,16.4142302 C14.5241297,16.5157271 14.3713877,16.6578228 14.1871988,16.7931521 L14.135536,16.9262259 C13.8996844,16.9758466 13.7469424,17.1923734 13.5537687,17.3074033 C13.4616743,17.4201777 13.3066861,17.4089003 13.196622,17.4900978 C13.1359744,17.4697984 13.0843117,17.3976228 13.0012021,17.4201777 C12.8192594,17.4810759 12.8282442,17.6773033 12.6957181,17.7878222 C12.684487,17.8599978 12.6126084,17.8915746 12.5519609,17.9321734 C12.5002981,17.920896 12.4508816,17.9660057 12.4171885,18.004349 C12.3071244,17.9953271 12.1948141,17.9953271 12.1229356,18.0742691 C12.0308411,18.2524527 11.855637,18.290796 11.6939102,18.3629716 C11.6534785,18.4351472 11.5591379,18.3629716 11.5097213,18.4058258 C11.4176269,18.4351472 11.3165476,18.475746 11.222207,18.4960454 C11.1323587,18.5479216 11.0178022,18.559199 10.9257078,18.5885204 C10.8358596,18.6426521 10.763981,18.7847478 10.6426859,18.7734704 C10.611239,18.8659453 10.4854514,18.8591789 10.4472659,18.9403764 C10.3349557,18.9899972 10.1889523,19.0238295 10.087873,19.1027716 C9.99577856,19.1320929 9.90368412,19.2042685 9.81383588,19.2042685 C9.71051041,19.2764441 9.60943114,19.3486197 9.48588982,19.3576417 C9.42524226,19.4320728 9.39379538,19.5358252 9.28148508,19.5448472 C9.10628102,19.5538691 9.01643278,19.7207752 8.87267561,19.7591185 C8.74913428,19.8200167 8.62783916,19.8831703 8.55596057,20.0049667 C8.46386613,20.0252661 8.44365028,20.1087191 8.38300272,20.1493179 C8.12468904,20.4560642 7.8439133,20.6004154 7.55639894,20.8868624 C7.47553553,20.9387386 7.42162659,21.0221916 7.35199421,21.0830898 C7.28910044,21.0943672 7.30033147,21.1665429 7.25091494,21.1845868 C7.13635844,21.2477404 7.05549503,21.3424709 6.95441576,21.3920916 C6.9319537,21.4845666 6.81964341,21.4845666 6.79942755,21.5657642 C6.68711726,21.6379398 6.60625385,21.7394367 6.54336008,21.8522111 L6.52539043,21.8228898 C6.50517458,21.8815325 6.44901943,21.9198758 6.42206496,21.9040873 C6.3614174,21.9153648 6.29852364,21.96273 6.26932296,22.0168617 C6.19744437,22.0574605 6.07390305,22.1093367 6.0941189,22.2108337 C6.02224031,22.3033087 5.93014587,22.4070611 5.81783557,22.4070611 C5.73697216,22.4995361 5.62466187,22.5626898 5.56401431,22.6641867 C5.32816269,22.7341068 5.17766689,22.8716916 5.00246283,23.0273202 C4.96203112,23.1400946 4.81827395,23.1829489 4.7261795,23.2438471 C4.64531609,23.2438471 4.56445268,23.2641465 4.51278994,23.3340666 C4.42968032,23.3340666 4.35330932,23.3656434 4.30164659,23.446841 C4.1174577,23.4874397 3.96696191,23.6611123 3.78501923,23.6205135 C3.56039864,23.6814117 3.34476287,23.5573599 3.20100569,23.3949647 C3.18078984,23.2821904 3.14934296,23.2280587 3.06847955,23.1355837 C2.99660096,22.9213123 3.01681681,22.6844861 3.05724852,22.4679593 C2.99660096,22.3348855 3.12912711,22.2108337 3.06847955,22.0890373 C3.0886954,21.9740075 3.06847955,21.8612331 3.05724852,21.7484587 C2.99660096,21.698838 3.05724852,21.5747861 3.00558578,21.5026105 C2.94493822,21.412391 2.99660096,21.2793172 2.99660096,21.1845868 C2.93370719,21.051513 3.04601749,20.8778404 2.92472237,20.765066 C2.80118104,20.7131898 2.81016587,20.580116 2.72031763,20.5079404 C2.72930245,20.4244874 2.63720801,20.4154654 2.64843904,20.3432898 C2.59677631,20.2214935 2.51591289,20.1087191 2.51591289,19.9756453 C2.46649636,19.7884398 2.51591289,19.5944679 2.4036026,19.4433502 C2.41258742,19.3801966 2.35193986,19.3283203 2.38338674,19.2764441 C2.31150816,18.9809752 2.20818268,18.6697179 2.15876615,18.3629716 C2.10710342,18.2524527 2.05544068,18.1374228 2.03522483,18.004349 C1.92291453,17.8599978 1.86002077,17.6660259 1.85328215,17.4697984 C1.70952497,17.3277027 1.63540018,17.1314753 1.55453677,16.9375033 C1.50512024,16.8450283 1.52533609,16.7322539 1.46468853,16.6510564 C1.44222647,16.4570844 1.40179476,16.2992003 1.27825344,16.1480826 C1.28948447,16.075907 1.20637485,16.075907 1.20637485,16.0059869 C1.09406455,15.8165259 1.04240182,15.6045101 0.963784612,15.4082826 C0.820027434,15.2030332 0.736917816,14.966207 0.63583855,14.7406583 C0.420202783,14.5263869 0.552728931,14.1880638 0.460634489,13.9399601 C0.368540047,13.7144113 0.460634489,13.4888626 0.440418636,13.2520363 C0.440418636,12.9949107 0.429187607,12.7174857 0.3887559,12.4513382 C0.33933937,12.3498412 0.379771077,12.1851906 0.244998722,12.1242925 C0.227029075,11.9889632 0.112472574,11.8761888 0.0945029268,11.7453705 C0.0316091614,11.6912388 0.0630560441,11.5897419 0.0203781319,11.5175663 C-0.0402694276,11.3551711 0.0518250146,11.2108199 0.0720408677,11.0461693 C0.112472574,10.9739937 0.0316091614,10.8837742 0.112472574,10.8093431 C0.143919457,10.7687443 0.175366339,10.6875468 0.227029075,10.6559699 C0.33933937,10.3988443 0.44940346,10.1439742 0.615622697,9.93872484 C0.642577168,9.87782667 0.696486109,9.81467302 0.705470933,9.73347546 C0.984000465,9.34327608 1.44222647,9.75151936 1.74995668,9.4853718 C1.81958906,9.46507242 1.88248283,9.46507242 1.93189936,9.3951523 C2.42381845,9.33199864 2.93370719,9.75603033 3.40541043,9.88008216 C3.67046273,9.97255716 3.90631435,10.189084 4.21179835,10.1484852 C4.31287762,10.1169084 4.42518791,10.1236748 4.50829753,10.0627767 C4.79581189,10.0357108 5.04963315,10.0830761 5.34613233,10.0830761 C5.48764331,10.0943535 5.63140048,9.99060106 5.77515766,10.0514992 L5.80660454,10.0334553 C6.23562987,10.0514992 6.64443935,10.1958504 7.05324882,10.0740541 C7.13411223,10.0627767 7.22845288,10.0943535 7.29808527,10.0424773 C7.70689474,10.0514992 8.07527251,9.84850533 8.48408198,9.84850533 C8.55596057,9.86880472 8.64580881,9.86880472 8.73116463,9.85752728 C8.93332316,9.95000228 9.15794376,10.0830761 9.3645947,10.0943535 C9.53530635,10.0627767 9.73072626,9.94098033 9.91491515,10.0334553 C10.0474413,10.0627767 10.1822136,10.0244334 10.3147398,10.0018785 C10.4674818,9.98157911 10.5775459,10.0830761 10.7325341,10.0627767 L10.763981,10.0943535 C10.9796167,10.1146529 11.1817753,10.0244334 11.3951648,10.0131559 C11.6736944,10.0018785 11.9275156,9.95000228 12.203799,9.88910411 C12.4306658,9.89812606 12.5766691,9.92970289 12.8012897,9.99060106" id="Fill-1" sketch:type="MSShapeGroup"></path>
            <path d="M33.4034903,16.8946491 C33.2282862,16.9758466 33.0755442,16.8675832 32.8913554,16.8878826 L32.4218983,16.9893795 L32.3814666,16.9758466 C32.1433688,17.1607966 31.8289,17.0795991 31.5638477,17.1833515 C31.480738,17.2758265 31.3684277,17.1923734 31.2875643,17.2758265 C31.1123603,17.3164253 30.9394024,17.3164253 30.7641984,17.3886009 C30.4295137,17.2961259 30.1127986,17.449499 29.7848526,17.4900978 L29.4681376,17.6660259 C29.2839487,17.6773033 29.1087446,17.726924 28.9447716,17.7585009 C28.7740599,17.6976027 28.5988559,17.7675228 28.4348828,17.819399 C28.0687513,17.920896 27.8441307,17.5532515 27.5071998,17.5825728 C27.4420598,17.5103972 27.3319957,17.541974 27.2601171,17.5103972 C27.2286703,17.5103972 27.1859924,17.5645289 27.1770075,17.5103972 C27.0849131,17.5103972 26.9950649,17.5103972 26.9029704,17.4810759 C26.822107,17.4314551 26.7592132,17.3277027 26.658134,17.3480021 C26.5750243,17.3592795 26.5952402,17.2329722 26.5143768,17.2758265 C26.4110513,17.2059064 26.2672941,17.2329722 26.1639687,17.1833515 L25.6450951,17.2149283 L25.6248792,17.1991399 C25.6158944,17.1878625 25.5215538,17.1923734 25.5215538,17.1923734 C25.3688118,17.2059064 25.2138236,17.2555271 25.0633278,17.2262058 C24.8184913,17.2758265 24.6028556,17.3886009 24.3467881,17.4314551 C24.1625992,17.5103972 24.018842,17.6660259 23.8166835,17.7066246 C23.6504643,17.6660259 23.4685216,17.7382015 23.3045485,17.7675228 C23.1405755,17.819399 22.9563866,17.8396984 22.7834288,17.8396984 C22.6801033,17.8396984 22.6082247,17.911874 22.5183765,17.911874 C22.262309,18.0675027 21.9141471,17.9457063 21.7209734,18.189299 C21.5772162,18.2524527 21.4626597,18.3426722 21.3211487,18.4148478 C21.2313005,18.4960454 21.0987743,18.3922929 21.0156647,18.4825124 C20.8921234,18.4825124 20.81126,18.5321332 20.6877187,18.5118338 C20.570916,18.5321332 20.5349767,18.5704765 20.4608519,18.5479216 C20.3777423,18.5208557 20.3732498,18.5840094 20.2676782,18.559199 C20.1171824,18.4554466 19.9307473,18.5388996 19.818437,18.6291191 C19.7263425,18.6200972 19.7780053,18.7328716 19.6971419,18.744149 C19.4725213,18.845646 19.3894117,19.0937496 19.2681165,19.298999 C19.1243594,19.3801966 19.2254386,19.5628911 19.15356,19.6756655 L19.1760221,20.0365435 C18.989587,20.3342679 19.4006427,20.4673417 19.3489799,20.774088 C19.4096275,20.8349862 19.3781806,20.950016 19.4410744,20.9883593 L19.5421537,21.2342075 C19.5938164,21.3582593 19.5533847,21.5026105 19.6364943,21.6266624 C19.6859108,21.7574806 19.829668,21.8522111 19.8611149,21.9943069 L20.2407237,22.1093367 L20.3799885,22.2920312 C20.5664235,22.3258636 20.7483662,22.3754843 20.9415399,22.3867617 C20.9729868,22.4070611 20.9954489,22.4499154 21.0426192,22.4363825 C21.1976074,22.4882587 21.3525956,22.5401349 21.5053376,22.5784782 C21.5772162,22.6123105 21.6490948,22.6506538 21.7209734,22.6326099 C22.0062415,22.7341068 22.3139717,22.7747056 22.5992399,22.8784581 L22.6306868,22.9213123 C22.7632129,22.9596556 22.8642922,23.0318312 22.9990645,23.063408 C23.091159,23.164905 23.243901,23.155883 23.3359954,23.2461026 C23.4483057,23.2461026 23.5179381,23.3521105 23.6302484,23.3611324 C23.8166835,23.3611324 23.8975469,23.5551044 24.0817358,23.5551044 C24.2142619,23.618258 24.324326,23.6994556 24.4793142,23.7310324 C24.542208,23.8235074 24.6635031,23.7919306 24.7466127,23.8753836 C24.8993547,23.9453038 24.9824644,24.0693556 25.1441912,24.1325092 C25.1958539,24.2137068 25.2789635,24.274605 25.3777966,24.3039263 C25.4294593,24.3761019 25.5440158,24.4189562 25.5732165,24.5204531 L25.5822013,24.5001537 L25.6450951,24.5407525 C25.7484206,24.6016507 25.8584847,24.6219501 25.9415943,24.6851037 C26.1864307,24.7437464 26.4312672,24.8271995 26.6783498,24.8790757 L26.6985657,24.9106525 C26.7996449,24.92193 26.9209401,24.9106525 26.9838338,24.9918501 C27.5880632,25.2286763 28.2214933,25.5061013 28.9065861,25.6075982 C29.2727176,25.6887958 29.701743,25.7203726 30.0588897,25.8557019 C30.3778509,25.9684763 30.6743501,26.10155 31.00005,26.2053025 C31.1550382,26.2256019 31.2987954,26.3045439 31.4605222,26.3270988 C31.5099387,26.4285958 31.6649269,26.3676976 31.7682524,26.387997 C31.7884683,26.387997 31.8086841,26.4195738 31.7974531,26.4511506 C32.0108426,26.5503921 32.2579253,26.6135458 32.4735611,26.7285756 C32.5319624,26.6947433 32.5634093,26.7984958 32.6263031,26.748875 C32.6869506,26.7872183 32.7700602,26.8616494 32.8801243,26.8323281 C32.8801243,26.8390945 32.9115712,26.8616494 32.9340333,26.8390945 C32.9834498,26.933825 33.1249608,26.9225476 33.2080704,26.9744238 L33.6393419,27.0984756 C33.7763605,27.1390744 33.9111328,27.1729067 34.0503976,27.2044836 L34.0503976,16.723232 C33.8235308,16.7502978 33.5989102,16.7502978 33.4034903,16.8946491" id="Fill-2" sketch:type="MSShapeGroup"></path>
            <path d="M10.022733,33.666456 C10.0946116,33.5424041 10.0654109,33.4318852 10.1058426,33.296556 C10.1372895,33.204081 10.1956909,33.1228834 10.2181529,33.019131 C10.2990164,32.9289115 10.2990164,32.7845602 10.393357,32.6920852 C10.4023418,32.6627639 10.3843722,32.5905883 10.4427735,32.5996102 C10.4652356,32.4259377 10.5663149,32.3221853 10.6381934,32.1688121 C10.6471783,32.1372353 10.6269624,32.0966365 10.6673941,32.0966365 C10.7078258,31.9026645 10.8425982,31.7605688 10.9234616,31.6049402 L10.9526623,31.6162176 C11.004325,31.5214871 11.0357719,31.4199902 11.1188815,31.3568365 C11.1795291,31.2147408 11.3008242,31.1222658 11.3008242,30.9666371 C11.3435021,30.9057389 11.4041497,30.8561182 11.3929186,30.7839426 C11.3143014,30.5583938 11.51646,30.4162981 11.5479068,30.1997713 L11.5479068,30.156917 C11.6287703,30.0441426 11.6602171,29.9110689 11.7320957,29.7982945 C11.7725274,29.7464182 11.7725274,29.6652207 11.821944,29.6336439 C11.9050536,29.4689933 12.008379,29.3359195 12.0780114,29.1622469 C12.1184431,29.153225 12.1094583,29.1103707 12.1296742,29.0900713 C12.1903217,29.0381951 12.2419845,28.954742 12.2622003,28.8735445 C12.4463892,28.6885945 12.4666051,28.4021475 12.6597788,28.228475 C12.7316574,28.0232256 12.8956304,27.8878963 13.0169255,27.7052018 C13.0820655,27.6443037 13.1224972,27.5405512 13.1808985,27.488675 C13.2235764,27.3759006 13.3044399,27.2834256 13.3853033,27.1819287 C13.4684129,26.8729269 13.7851279,26.6383561 13.9176541,26.3383763 C13.9895327,26.3383763 13.960332,26.2368793 14.0209795,26.2165799 C14.124305,26.0203525 14.2972629,25.8669793 14.364649,25.6504525 C14.429789,25.5534665 14.5151448,25.5309116 14.5645614,25.4068598 C14.5847772,25.3955824 14.6297013,25.3933269 14.6341938,25.3437062 C14.6970875,25.2940854 14.7217958,25.282808 14.7712123,25.2219098 C14.8475833,25.2038659 14.8296137,25.1700336 14.8902612,25.1519897 L14.9329391,25.1249239 C14.941924,25.1181574 14.9509088,25.1113909 14.9598936,25.1046245 L14.9621398,25.1046245 C14.9621398,25.1046245 15.1957452,24.996361 15.2361769,24.8903531 C15.411381,24.7708123 15.4405817,24.5655629 15.5439071,24.4121897 C15.5865851,24.2768605 15.6966491,24.1956629 15.7595429,24.0716111 C15.8179443,23.9475592 15.8965615,23.7874196 15.9325008,23.6904336 C15.9100387,23.6047251 15.9055463,23.5844257 15.8853304,23.5122501 C16.0313338,23.261891 15.9527166,22.9258233 15.858376,22.6574203 C15.8269291,22.4521709 15.705634,22.2378995 15.498983,22.1341471 C15.3574721,22.0619715 15.3552258,21.9198758 15.2204535,21.8499556 C15.2069763,21.8319117 15.2361769,21.8138678 15.2159611,21.8071014 C15.1979914,21.791313 15.1755294,21.786802 15.1508211,21.77778 C15.1418363,21.7710136 15.1350977,21.7642471 15.1283591,21.7529697 C15.1126356,21.7529697 15.0991584,21.7484587 15.0879273,21.7416922 C15.0856811,21.7394367 15.0811887,21.7349258 15.0789425,21.7326703 C15.0722039,21.7326703 15.0677115,21.7304148 15.0609729,21.7281593 C15.0093101,21.689816 15.0227874,21.606363 14.9621398,21.5680197 C14.9194619,21.3943471 14.7554889,21.2905947 14.6836103,21.1169221 C14.6297013,20.8936288 14.4522511,20.6748465 14.2253843,20.5733496 C14.1445209,20.5327508 14.0569188,20.501174 13.9625782,20.496663 C13.80759,20.4786191 13.6570942,20.3613337 13.4953674,20.3568228 C13.4818901,20.3523118 13.4684129,20.3500563 13.4594281,20.3478008 L13.4526894,20.3342679 C13.2662544,20.2823917 13.1651751,20.3139685 12.9809862,20.2823917 C12.8888918,20.3229904 12.7765815,20.2823917 12.6755022,20.302691 C12.6350705,20.3432898 12.5519609,20.2823917 12.531745,20.3432898 L12.520514,20.3342679 C12.4171885,20.3861441 12.3273403,20.3658447 12.2240148,20.395166 C12.1229356,20.4380203 12.0196101,20.4154654 11.9409929,20.496663 C11.5815999,20.5485392 11.233438,20.6928904 10.9257078,20.8349862 C10.7931817,20.8349862 10.6741327,20.9094172 10.5505914,20.9612935 C10.5191445,20.9793374 10.5191445,21.042491 10.4674818,20.9996368 C10.1080889,21.2071416 9.70152558,21.3086386 9.38256435,21.5950855 C9.27250026,21.6153849 9.18939064,21.6785386 9.08606517,21.698838 C8.93332316,21.8003349 8.77833496,21.9131093 8.62783916,22.0168617 C8.55596057,22.0371611 8.53574472,22.1296361 8.47285095,22.1409136 C8.42343442,22.2717318 8.29090828,22.3439075 8.17635177,22.4160831 C8.11570422,22.5581788 7.95397739,22.5085581 7.85963674,22.6010331 C7.63501615,22.6844861 7.47328933,22.8784581 7.22845288,22.9303343 C6.70508691,23.3092562 6.11208855,23.5754038 5.61343084,23.99718 C5.55952189,24.0174794 5.59096878,24.089655 5.53032122,24.0783775 C5.35960957,24.2903934 5.17317448,24.5227086 4.96203112,24.7121696 C4.74864156,24.8813312 4.52402097,25.0414708 4.3443245,25.1677781 C4.24549144,25.2286763 4.11970391,25.2985964 3.99616258,25.2985964 C3.90406814,25.3234068 3.83892817,25.4046043 3.76929579,25.4655025 C3.59858414,25.5173787 3.6210462,25.6166202 3.47953523,25.6978177 C3.36722493,25.8714903 3.19875949,26.0338854 3.08195678,26.1782366 C3.09768022,26.2413903 3.16057399,26.3113104 3.11564987,26.3947635 C3.12463469,26.6135458 3.16955881,26.6721884 3.18977466,26.8887153 C3.14934296,26.9270586 3.12912711,26.9992342 3.14934296,27.0533659 C3.23245258,27.1029866 3.13811193,27.2473378 3.2414374,27.2969586 C3.27063808,27.5134854 3.39642561,27.6375372 3.40765664,27.863086 C3.49301246,28.0164591 3.47953523,28.2014091 3.60532276,28.3232055 C3.91080676,28.7562591 3.98717776,29.2547219 4.32410865,29.6561987 C4.41620309,29.7667176 4.40721827,29.8997914 4.40721827,30.0441426 L4.46786582,30.4253201 C4.63183886,30.7771761 4.82052015,31.072645 4.98000077,31.3996908 C5.01818627,31.5259981 5.05637177,31.6568164 5.10129589,31.7876347 C5.16194345,32.1146804 5.20237516,32.4236822 5.32591648,32.7304285 C5.27425374,32.7823048 5.2967158,32.8725243 5.31693166,32.9356779 C5.2967158,33.0687517 5.37757922,33.204081 5.37757922,33.3371547 C5.38656404,33.375498 5.44945781,33.3980529 5.41576472,33.4476736 C5.27425374,34.0138011 5.51909019,34.5167748 5.85826728,34.9453175 C5.97057758,35.1843992 5.85826728,35.4595687 5.90993002,35.6963949 C5.85826728,35.9535205 5.99079343,36.1226821 6.04245616,36.3685303 C6.17947472,36.5083705 6.42206496,36.4113845 6.58154558,36.5286699 C6.61523867,36.5399473 6.63770073,36.5647577 6.65791658,36.5895681 L6.68487105,36.5895681 L6.67588623,36.5895681 C6.68262485,36.5963345 6.69160967,36.603101 6.69834829,36.612123 C6.79718135,36.6527217 7.0060785,36.7203864 7.09143432,36.6391888 C7.21946806,36.6301669 7.32728594,36.6685101 7.46655071,36.6211449 C7.63501615,36.8128614 7.90006845,36.6978315 8.12244283,36.7226419 C8.12244283,36.7226419 8.40321857,36.5828016 8.41220339,36.5828016 C8.43241925,36.4790492 8.58740746,36.4655162 8.64580881,36.3955961 C8.63682399,36.2715443 8.80079702,36.2918437 8.82101287,36.1790693 C8.87941422,36.0865943 8.90187628,36.149748 8.93107696,36.1023827 C8.98049349,36.0189297 9.01643278,36.0256961 9.08606517,35.9535205 C9.08157275,35.9016443 9.10178861,35.8610455 9.12425067,35.8249577 C9.19388305,35.775337 9.26800784,35.7302272 9.27699267,35.6670736 C9.33988643,35.5655766 9.36010229,35.4415248 9.4409657,35.3513053 C9.42973467,35.2385309 9.51284429,35.1663553 9.55327599,35.0626029 C9.58472288,35.0332815 9.56450702,34.9701279 9.61616976,34.938551 C9.64537044,34.8483315 9.72848006,34.7648785 9.706018,34.661126 C9.71724903,34.6521041 9.72848006,34.6521041 9.73746488,34.6521041 L9.8205745,34.4378328 C9.87223723,34.2438608 9.94411582,34.0453779 9.98230132,33.8829828 C10.0541799,33.8311066 10.022733,33.7296096 10.022733,33.666456" id="Fill-3" sketch:type="MSShapeGroup"></path>
            <path d="M10.5932693,36.5016041 L10.7684734,36.5625022 C11.0739574,36.6053565 11.462551,36.3820632 11.745573,36.3414644 C11.844406,36.41364 12.0106253,36.4361949 12.1184431,36.427173 C12.3228479,36.4677717 12.4823285,36.3549973 12.6822408,36.4294284 C12.8596911,36.418151 13.0618496,36.3685303 13.2123454,36.4700272 C13.3763184,36.4542388 13.5717384,36.6482108 13.7446962,36.6504662 C14.483698,36.6301669 15.1014046,36.2083906 15.804467,36.506115 C16.4603592,36.5083705 17.003941,36.9820229 17.6575869,36.9865339 C17.6688179,37.0293882 17.7631586,36.9865339 17.7541738,37.0361546 C18.1023357,37.0632205 18.4841907,37.0632205 18.8121367,37.2256156 C19.4680289,37.3180906 20.0969665,37.6361144 20.7528586,37.7646772 C20.9887103,37.8413638 21.2313005,37.7782101 21.4716445,37.7511443 C21.891685,37.6428809 22.2960021,37.9180504 22.720535,37.8661741 L22.8216143,37.9045174 C23.331503,37.9518827 23.8638538,37.9383497 24.4209129,37.796254 C24.6792266,37.796254 24.9218168,37.9879705 25.1981001,37.9609046 C25.5215538,37.7827211 25.9146398,38.0849565 26.2830176,38.0375912 L26.7210277,38.2473516 C26.8558001,38.2879503 27.0040497,38.2924613 27.1320834,38.2766729 C27.4195978,38.2924613 27.7026197,38.5946967 28.0193347,38.5540979 C28.2214933,38.628529 28.7471055,38.7593473 28.9357868,38.7570918 C29.0885288,38.7345369 29.2345321,38.8157345 29.3670583,38.725515 C29.5332775,38.5856747 29.7084816,38.7706247 29.8904243,38.6916827 C30.1240297,38.7683692 30.3576351,38.8676107 30.5800095,38.9036985 L31.3504581,38.9194869 C31.9120096,38.7458144 32.3410349,39.3525406 32.8756319,39.0412833 C33.3338579,38.9713631 33.7898377,38.8292674 34.0459052,38.8585887 L34.0481514,33.8604279 C34.032428,33.8536614 33.9695342,33.8085517 33.9695342,33.8085517 C33.9380873,33.7972742 33.8954094,33.7882523 33.8617163,33.7837413 C33.6887584,33.7205877 33.6281109,33.6844999 33.4529068,33.6754779 C33.3810282,33.6326236 33.2889338,33.6123242 33.2080704,33.6033023 C33.0306201,33.5085718 32.8509236,33.4860169 32.6757196,33.4025639 C32.6577499,33.389031 32.6397803,33.3822645 32.6218106,33.3687316 C32.5431934,33.3394102 32.5297162,33.2356578 32.439868,33.2153584 L32.4353756,33.2131029 C32.3432811,33.1319054 32.221986,33.0890511 32.1545998,33.010109 C32.1411226,33.0078535 32.134384,33.005598 32.1253991,33.0033426 C32.1164143,32.9988316 32.1096757,32.9920651 32.1051833,32.9875541 C32.0512743,32.9807877 32.0018578,32.9672548 31.9569337,32.9424444 C31.8715779,32.8995901 31.7952069,32.8386919 31.7233283,32.7845602 C31.7165897,32.7868157 31.709851,32.7845602 31.7053586,32.7845602 C31.6963738,32.7755383 31.687389,32.7687718 31.6739118,32.7620054 C31.6581883,32.7642609 31.6402187,32.7620054 31.622249,32.7552389 C31.6065256,32.746217 31.5908021,32.732684 31.5795711,32.7236621 C31.5683401,32.7214066 31.5616015,32.7168956 31.5481242,32.7146401 C31.5436318,32.7101291 31.5368932,32.7033627 31.5301546,32.6988517 C31.5166773,32.6965962 31.5032001,32.6920852 31.4897229,32.6875743 C31.4358139,32.6559974 31.3886436,32.6108877 31.327996,32.5905883 C31.3077802,32.5770554 31.2853181,32.5657779 31.2628561,32.561267 C31.1887313,32.5026243 31.1033755,32.455259 31.0135272,32.4101493 C30.8787549,32.3447401 30.7327515,32.2928639 30.5979791,32.2297103 C30.5912405,32.1891115 30.5553012,32.1710676 30.5171157,32.1552792 C30.4991461,32.1440017 30.4721916,32.1327243 30.4429909,32.1237023 C30.4340061,32.0808481 30.4048054,32.0628042 30.3688661,32.0537822 C30.3329268,32.0222054 30.2790179,32.0222054 30.2273551,32.0154389 C30.2138779,31.9545408 30.1577228,31.9590517 30.1285221,31.9026645 C30.1150449,31.900409 30.1015676,31.8936426 30.0858442,31.8891316 C30.0858442,31.8846206 30.0813518,31.8823651 30.0813518,31.8801097 C30.0094732,31.8620658 29.942087,31.8237225 29.8791932,31.7989121 C29.4344445,31.456078 28.9694798,31.1493316 28.5741476,30.7230444 C28.3922049,30.5380944 28.2372167,30.2990127 28.0642589,30.1163182 C27.9317327,29.9426457 27.727328,29.8614481 27.6037867,29.694542 C27.4892302,29.6426658 27.3791661,29.5727457 27.3275033,29.4509494 C27.3117799,29.4486939 27.2983026,29.4441829 27.2870716,29.4374164 C27.2870716,29.4329054 27.2825792,29.43065 27.280333,29.426139 C27.2735944,29.4238835 27.2668558,29.421628 27.2578709,29.421628 C27.2084544,29.3855402 27.1702689,29.3268975 27.1096214,29.3111091 C27.0938979,29.2998317 27.0804207,29.2930652 27.0646972,29.2885542 C27.0422352,29.2479555 27.0265117,29.2005902 26.9793414,29.1983347 C26.9681104,29.1848018 26.9546331,29.1757798 26.9344173,29.1735244 C26.9231863,29.1554805 26.9007242,29.1419475 26.8782621,29.1419475 C26.8715235,29.1329256 26.8625387,29.1261591 26.8535539,29.1239036 C26.8018911,29.0810494 26.7614594,29.0111292 26.6940733,28.9930853 C26.6783498,28.9818079 26.6603802,28.9727859 26.6424105,28.968275 C26.5480699,28.9096323 26.4829299,28.8149018 26.3796044,28.774303 C26.3616348,28.7652811 26.3391727,28.7562591 26.3189569,28.7494927 C26.2088928,28.6547622 26.0651356,28.593864 25.9393481,28.5036445 L25.928117,28.5036445 C25.9146398,28.496878 25.9034088,28.4901116 25.8899315,28.4833451 C25.8337764,28.4901116 25.775375,28.4765786 25.7214661,28.4540238 C25.665311,28.4247024 25.6158944,28.3863591 25.5687241,28.3502713 C25.5574931,28.3480158 25.546262,28.3435049 25.535031,28.3389939 C25.5305386,28.3344829 25.5260462,28.3322274 25.5215538,28.3277165 C25.1554222,28.1833652 24.8252299,28.1111896 24.4680832,27.95105 C24.4501136,27.9397726 24.4254053,27.9307506 24.4051894,27.9284951 C24.400697,27.9239841 24.3984508,27.9217287 24.3939584,27.9217287 L24.4051894,27.9081957 C24.3939584,27.8878963 24.3849736,27.8698524 24.3759888,27.858575 C24.3580191,27.854064 24.3422957,27.8450421 24.3288184,27.8382756 C24.3265722,27.8382756 24.324326,27.8360201 24.324326,27.8360201 C24.3220798,27.8337646 24.3175874,27.8315091 24.3108488,27.8292537 C24.2030309,27.7683555 24.1244137,27.6578366 24.0255806,27.5721281 C24.0165958,27.5698726 24.0053648,27.5676171 23.99638,27.5653616 C23.9896413,27.5585951 23.9873951,27.5540842 23.9806565,27.5495732 C23.9694255,27.5473177 23.9581945,27.5450622 23.9492096,27.5405512 C23.8953007,27.5022079 23.8616076,27.4345433 23.8009601,27.3984555 C23.7156042,27.3578567 23.6931422,27.2653817 23.6122788,27.2473378 C23.6077863,27.2405714 23.5988015,27.2360604 23.5875705,27.2315494 C23.4213513,27.0398329 23.3472265,26.8187951 23.1473141,26.6564 C23.1158673,26.6473781 23.1383293,26.5864799 23.0866666,26.5864799 C23.0978976,26.5255817 23.0574659,26.484983 23.003557,26.4601726 C23.026019,26.3902525 22.9024777,26.4015299 22.9137087,26.3203324 C22.8755232,26.2729671 22.8350915,26.2188354 22.7766902,26.203047 C22.7677053,26.1962805 22.7587205,26.1895141 22.7497357,26.1872586 C22.5206227,25.9504324 22.3566497,25.7113507 22.0960898,25.5399336 C21.9972567,25.4812909 21.8961774,25.3820495 21.7838672,25.3369397 C21.7456817,25.3143848 21.7030037,25.2985964 21.6580796,25.2895745 C21.6558334,25.2895745 21.6535872,25.287319 21.651341,25.287319 C21.6266327,25.2692751 21.6109093,25.2467202 21.6154017,25.2106324 C21.5906934,25.194844 21.586201,25.2219098 21.5794624,25.2444647 C21.5682314,25.2286763 21.563739,25.2106324 21.5682314,25.1880775 C21.5345383,25.1677781 21.5345383,25.2173988 21.5277997,25.2399537 C21.5008452,25.2376982 21.4783831,25.2286763 21.4559211,25.2173988 C21.3683191,25.1700336 21.3009329,25.0910915 21.2110846,25.0572592 C21.1976074,25.0504928 21.1863764,25.0437263 21.1751454,25.0392153 C21.1706529,25.0369598 21.1684067,25.0369598 21.1661605,25.0347043 C21.1571757,25.0324489 21.1481909,25.0256824 21.1392061,25.0234269 C21.1257288,25.005383 21.1032668,25.009894 21.0875433,25.014405 L21.0448654,25.000872 C21.0448654,24.9986165 21.0426192,24.996361 21.0426192,24.9918501 L20.8651689,24.9332074 C20.8427069,24.908397 20.81126,24.8903531 20.7775669,24.8790757 C20.7214118,24.8452434 20.6495332,24.8339659 20.5888856,24.8069001 C20.5327305,24.7617903 20.4675905,24.727958 20.4002043,24.7008922 C20.3328181,24.6625489 20.2631858,24.6377385 20.1980458,24.6106726 C20.0453038,24.6106726 19.91727,24.5227086 19.7847439,24.4775989 C19.7375736,24.4415111 19.6904032,24.3873794 19.6364943,24.3715909 C19.6050474,24.3512916 19.3489799,24.4009123 19.3130407,24.4121897 C19.0390035,24.4978983 19.0524808,24.5249641 18.8301064,24.7008922 C18.7964133,24.732469 18.7335195,24.6986367 18.7335195,24.7572793 C18.6504099,24.8317104 18.6504099,24.820433 18.4909293,24.8452434 C18.466221,24.8610318 18.4415128,24.8948641 18.4212969,24.8903531 C18.3920962,24.8700537 18.3606494,24.9602732 18.3292025,24.9535068 C18.2955094,24.9309519 18.2595701,24.9715507 18.214646,24.9918501 C18.0933508,25.0617702 18.0416881,25.1993549 17.909162,25.2512312 C17.8462682,25.278297 17.7946055,25.3730275 17.7339579,25.4158818 C17.6126628,25.6504525 17.3655801,25.7925482 17.2016071,25.9887757 C17.1229899,26.1534263 16.8961231,26.2143244 16.8556914,26.4195738 C16.8040287,26.4082964 16.7927976,26.4691945 16.7546121,26.480472 C16.7321501,26.5436256 16.6715025,26.5503921 16.6512867,26.6248232 C16.4760826,26.757897 16.3031247,26.8999927 16.1795834,27.0759208 C15.9953945,27.3217689 15.8134519,27.5495732 15.6494788,27.8247427 C15.629263,27.8450421 15.6382478,27.9081957 15.5888313,27.9172177 C15.2406693,28.4517683 14.9239543,29.0246622 14.5151448,29.5479353 L14.3197249,29.8276158 C14.288278,29.8569371 14.2995091,29.9200908 14.2478463,29.9291128 C14.2186457,30.0306097 14.1467671,30.1027853 14.0861195,30.1749609 C14.0546726,30.3080347 13.9535934,30.4117871 13.8906996,30.5155396 C13.8502679,30.6666572 13.7694045,30.7816871 13.7065107,30.9147609 C13.5627535,31.2936828 13.3403792,31.6026847 13.1764061,31.9725847 C13.1045275,32.1372353 13.0101869,32.2906084 12.9697552,32.4733029 C12.8888918,32.6379535 12.9113538,32.8635023 12.7990435,33.0078535 C12.6350705,33.2131029 12.5115292,33.4070749 12.367772,33.6236017 C12.3475561,33.6957773 12.2464769,33.7160767 12.2554617,33.7972742 C12.062288,33.9709468 11.9275156,34.1852181 11.7860047,34.392723 C11.8062205,34.49422 11.6939102,34.5460962 11.6939102,34.6295492 C11.6018158,34.7107468 11.5299372,34.8347986 11.4176269,34.9272736 C11.4288579,34.9881718 11.3569793,35.0084712 11.3457483,35.0603474 C11.1817753,35.5137004 10.8762913,35.8903669 10.6516707,36.321165" id="Fill-4" sketch:type="MSShapeGroup"></path>
            <path d="M34.0414128,8.36439439 L34.0414128,0.0596885057 C33.8864246,0.0439000914 33.7718681,-0.00797612676 33.6146337,0.00104582423 C33.3585662,0.0326226527 33.2664717,0.0732214322 33.0598208,0.167951918 C32.8778781,0.156674479 32.8778781,0.271704354 32.7139051,0.219828136 C32.6218106,0.179229356 32.4690686,0.287492768 32.385959,0.237872038 C32.2040163,0.226594599 32.0310585,0.258171428 31.8558544,0.330347035 C31.7839758,0.359668376 31.7233283,0.400267156 31.6716655,0.420566545 C31.599787,0.440865935 31.5076925,0.454398862 31.447045,0.494997641 C31.2628561,0.55589581 31.3145188,0.781444585 31.1303299,0.813021414 C30.8338307,0.925795801 30.5687784,1.07916897 30.312711,1.28216287 C30.0858442,1.36561591 29.9218711,1.60469761 29.7601443,1.73326041 C29.4232134,2.04451772 28.9829571,2.11443784 28.6460262,2.41441771 C28.4730683,2.4730604 28.3203263,2.59711222 28.185554,2.70086466 C28.1046906,2.72116405 28.055274,2.79333966 27.9833954,2.82491648 C27.9182555,2.90611404 27.826161,2.93543538 27.7767445,3.01663294 C27.6037867,3.10008599 27.4195978,3.16323965 27.2668558,3.27375855 C27.05122,3.43840915 26.8063836,3.51058476 26.5907478,3.63463659 C26.3683734,3.80830914 26.0920901,3.93236097 25.8247916,3.99325914 C25.7034965,4.03385792 25.58894,4.13761035 25.4676448,4.14888779 C25.2744711,4.23008535 25.0902822,4.36315913 24.935294,4.50525486 C24.7623362,4.72178168 24.5377156,4.95860789 24.3535267,5.16385728 C24.1895537,5.22475545 24.0457965,5.33752984 23.9020393,5.44128227 C23.8234221,5.47060361 23.7492973,5.53375727 23.6796649,5.56307861 C23.5538774,5.70742983 23.3607037,5.73900666 23.2394086,5.87208043 C23.1473141,5.86305848 23.0956514,5.97357738 23.003557,5.96455543 C22.8597998,6.00515421 22.7474895,6.06605238 22.6261944,6.12920604 C22.4420055,6.27355725 22.197169,6.30287859 21.9815333,6.33445542 C21.8490071,6.33445542 21.716481,6.42693042 21.5929396,6.3750542 C21.4604135,6.47880664 21.2762246,6.38407615 21.1459447,6.49685054 C21.051604,6.5600042 20.9482786,6.61188041 20.8584303,6.65022371 C20.6652566,6.75397614 20.5214994,6.86675053 20.3462954,6.96824748 C19.9577017,7.07199991 19.5803392,7.21635113 19.1602987,7.23890601 C18.9581401,7.25243893 18.9626325,7.19605174 18.8031519,7.22537308 C18.7335195,7.1847743 18.6009934,7.2028182 18.5515769,7.23439503 C18.3359411,7.21635113 18.3359411,7.39227917 18.1517522,7.44641088 C17.8462682,7.50505356 17.6081704,7.80503343 17.320656,7.94938465 C17.1387133,8.12531269 16.8556914,8.09599135 16.6625177,8.24936452 C16.415435,8.32154013 16.0650269,8.49521268 16.0178566,8.49521268 C15.9010539,8.45010293 15.7415733,8.61700902 15.6202781,8.61700902 C15.5573844,8.6576078 15.4630437,8.77940414 15.40015,8.80872548 C15.3484872,8.76587121 15.3080555,8.83804682 15.258639,8.82000292 C15.1642983,8.88090109 15.0250336,8.87413463 14.9621398,8.97788706 C14.8093978,9.0996834 14.6903489,9.02299682 14.7195496,9.21922425 C14.63644,9.28012242 14.6791179,9.39064132 14.658902,9.45153949 C14.822875,9.60491266 14.8093978,9.83046143 14.9958329,9.94323582 C14.9958329,10.0266889 15.0856811,10.0154114 15.1283591,10.0560102 C15.3013169,10.0650322 15.3821803,10.2206608 15.5461534,10.2296828 C15.6202781,10.3131358 15.7617891,10.2928364 15.8224367,10.4056108 C15.8853304,10.4868084 15.9684401,10.5950718 16.0493035,10.6446925 C16.2334924,10.6153712 16.3233406,10.6943132 16.4670978,10.7687443 C16.5075295,10.8070876 16.5794081,10.7777663 16.622086,10.8386645 C16.7119342,10.8296425 16.8017825,10.9040736 16.9006155,10.8724968 C16.9747403,11.0055705 17.1387133,10.9988041 17.1903761,11.1454108 C17.2824705,11.1454108 17.3049326,11.2559297 17.374565,11.3055504 C17.4576746,11.294273 17.4689056,11.3664486 17.5317994,11.4183248 C17.6890338,11.571698 17.8260523,11.6371071 17.8574992,11.8220571 C17.8866999,11.9122766 17.9428551,11.9461089 17.9518399,12.0476059 C17.9114082,12.117526 18.0888584,12.1806797 18.0663964,12.2325559 C18.0888584,12.3453303 18.1921839,12.4490827 18.1742143,12.5618571 C18.2056611,12.6498211 18.160737,12.7535736 18.2123998,12.848304 C18.3269563,12.9949107 18.1517522,13.0738528 18.214646,13.1866272 C18.2236308,13.2385034 18.1652294,13.1911382 18.1921839,13.2768467 C18.3044942,13.4437528 18.2079073,13.6264473 18.2797859,13.8001199 L18.1899377,14.138443 C18.0798736,14.2376845 18.1113205,14.336926 17.9877792,14.4271455 C17.920393,14.5782631 17.6575869,14.6842711 17.680049,14.8286223 C17.7070034,14.9819954 17.6216476,15.0834924 17.7070034,15.1872448 C17.8777151,15.2278436 17.7833744,15.4150491 17.9159006,15.4962467 C18.1315363,15.5864662 18.7065651,15.8751686 18.9603863,15.886446 C19.0322649,15.8232924 19.0951587,15.9157674 19.1760221,15.895468 C19.2366697,16.0195198 19.3489799,15.9067454 19.4500592,15.9270448 L19.4725213,15.895468 C19.6140322,15.886446 19.7690205,15.8458473 19.9217625,15.8661466 C20.0969665,15.9157674 20.299125,15.8661466 20.4316512,15.8232924 L20.5551925,15.802993 C20.7483662,15.7330729 20.9258165,15.6405979 21.0763123,15.5278235 C21.1571757,15.5368454 21.1908688,15.4646698 21.2492701,15.424071 C21.3817963,15.3812168 21.5143224,15.3000192 21.6580796,15.2797198 C21.7614051,15.2165662 21.8647306,15.1263467 21.9860257,15.1353686 C22.0781201,15.0744704 22.2016614,15.0947698 22.3027407,15.0451491 C22.731766,14.7993009 23.0192804,14.3865467 23.5314153,14.336926 C23.9177628,14.1316766 24.2951254,14.059501 24.683719,13.8519961 C24.7039348,13.8722955 24.7645824,13.8519961 24.7758134,13.8835729 C24.989203,13.7910979 25.2138236,13.6693016 25.4609062,13.6580241 C25.8787005,13.504651 26.1954155,13.2046711 26.6244409,13.0738528 C26.7906601,13.042276 26.9119552,12.9295016 27.0444814,12.8370266 C27.2601171,12.6453101 27.5880632,12.6701205 27.8216686,12.5099809 L27.8935472,12.4987034 C28.208016,12.3656297 28.5584242,12.2122565 28.7920296,11.9122766 C28.9447716,11.8333346 29.0885288,11.7498815 29.243517,11.6483846 C29.3760431,11.4408797 29.6321106,11.3596821 29.8342691,11.2153309 L30.0409201,10.9785047 C30.1307683,10.9582053 30.1936621,10.8679858 30.2632944,10.8161096 C30.4384985,10.7326565 30.5822557,10.5995828 30.7552135,10.4755309 C30.8967245,10.457487 31.00005,10.2928364 31.1123603,10.2296828 C31.1932237,10.1687846 31.3077802,10.1687846 31.3571967,10.0763096 C31.4088595,9.94323582 31.5728325,9.99511204 31.6559421,9.8913596 C31.8176689,9.86203826 31.9097634,9.70866509 32.0535206,9.65453339 L32.5139928,9.41996266 C32.7902761,9.14253767 33.1878545,9.26207852 33.4034903,8.9147334 C33.6528192,8.72978341 33.7314364,8.53806695 34.0144583,8.4004822" id="Fill-5" sketch:type="MSShapeGroup"></path>
        </g>
    </g>
</svg>